<?xml version="1.0" encoding="utf-8"?>
<!-- Generator: Adobe Illustrator 26.1.0, SVG Export Plug-In . SVG Version: 6.00 Build 0)  -->
<svg version="1.1" id="Layer_1" xmlns="http://www.w3.org/2000/svg" xmlns:xlink="http://www.w3.org/1999/xlink" x="0px" y="0px"
	 viewBox="0 0 180 160" style="enable-background:new 0 0 180 160;" xml:space="preserve">
<style type="text/css">
	.st0{fill:#FFFFFF;}
	.st1{fill:#009E49;}
	.st2{fill:#D81E05;}
</style>
<g>
	<path class="st0" d="M174.4,34.6c-1.7-3.3-5.1-5.3-8.7-5.3H114l1.8-6.9c0.1-0.4-0.1-0.9-0.5-1c-0.2-0.1-0.4-0.1-0.5,0l-7,1.9
		c-0.1,0-0.2,0-0.3-0.1l-2.3-4.4c-0.2-0.4-0.7-0.5-1-0.3c-0.1,0-0.2,0.1-0.2,0.2l-2.3,2.7c-0.1,0.1-0.3,0.1-0.4,0s-0.1-0.1-0.1-0.2
		l2.2-10.5c0.1-0.4-0.2-0.8-0.6-0.9c-0.2,0-0.4,0-0.6,0.1l-6.3,3.7c-0.1,0.1-0.3,0-0.4-0.1l0,0l-4.9-9.2c-0.2-0.4-0.7-0.5-1.1-0.3
		c-0.1,0.1-0.3,0.2-0.3,0.3l-4.9,9.2c-0.1,0.1-0.2,0.2-0.4,0.1l0,0l-6.3-3.7c-0.4-0.2-0.8-0.1-1.1,0.3c-0.1,0.2-0.1,0.4-0.1,0.6
		l2.2,10.5c0,0.1,0,0.3-0.2,0.3c-0.1,0-0.2,0-0.3-0.1l-2.3-2.7c-0.3-0.3-0.8-0.4-1.1-0.1c-0.1,0.1-0.1,0.1-0.2,0.2l-2.3,4.4
		c-0.1,0.1-0.2,0.2-0.3,0.1l-7.1-1.8c-0.4-0.1-0.9,0.1-1,0.5c-0.1,0.2-0.1,0.4,0,0.5l1.8,6.9H14.4c-5.4,0-9.8,4.4-9.8,9.8
		c0,2,0.6,4,1.8,5.7L82,152c3.2,4.4,9.3,5.4,13.7,2.3c0.9-0.6,1.6-1.4,2.3-2.3l75.7-107.2C175.8,41.8,176.1,37.9,174.4,34.6z
		 M67.9,31.6c0.7-0.4,1-1.1,0.8-1.9l-1.3-5l5,1.3c0.7,0.2,1.5-0.2,1.9-0.8l1.5-2.9l5.9,6.8c0.3,0.3,0.8,0.4,1.1,0.1
		c0.2-0.2,0.3-0.5,0.3-0.7L80,14l3.9,2.3c0.7,0.4,1.7,0.2,2.2-0.5v-0.1L90,8.3l3.9,7.4c0.4,0.8,1.4,1.1,2.1,0.7h0.1l3.9-2.3
		l-3.1,14.4c-0.1,0.4,0.1,0.8,0.6,0.9c0.3,0.1,0.6,0,0.8-0.3l5.9-6.8l1.5,2.9c0.4,0.7,1.2,1,1.9,0.8l5-1.3l-1.3,5
		c-0.2,0.7,0.1,1.5,0.8,1.9l2.9,1.5l-12.5,10.7c-0.5,0.5-0.7,1.3-0.3,1.9l1.8,3.2l-12.1-2.1V52h-3.6v-5.2l-12.2,2.1l1.7-3.2
		c0.3-0.6,0.2-1.4-0.3-1.9L65,33.1L67.9,31.6z M170.6,42.6L94.9,149.8c-1.9,2.7-5.6,3.4-8.4,1.5c-0.6-0.4-1.1-0.9-1.5-1.5L9.4,42.6
		c-1.9-2.7-1.3-6.4,1.4-8.4c1.1-0.8,2.3-1.2,3.6-1.1h46.7l14,12c0.1,0.1,0.1,0.2,0.1,0.3l-3.3,6c-0.1,0.3,0,0.6,0.2,0.7
		c0.1,0.1,0.2,0.1,0.3,0.1l13-2.3c0.1,0,0.3,0.1,0.3,0.2l0,0v4.1c0,0.1,0.1,0.3,0.2,0.3l0,0h8.2c0.1,0,0.3-0.1,0.3-0.3l0,0V50
		c0-0.1,0.1-0.3,0.3-0.3l0,0l13,2.3c0.3,0,0.5-0.1,0.6-0.4c0-0.1,0-0.2-0.1-0.3l-3.3-6c-0.1-0.1,0-0.2,0.1-0.3l13.9-12h46.7
		c3.3,0,6,2.6,6.1,5.9C171.8,40.3,171.4,41.6,170.6,42.6L170.6,42.6z"/>
	<path class="st1" d="M67.9,31.6L65,33.1l12.5,10.8c0.5,0.5,0.7,1.3,0.3,1.9l-1.7,3.1l12.1-2.1l0,0V52h3.6v-5.2l12.1,2.1l-1.8-3.2
		c-0.4-0.6-0.2-1.4,0.3-1.9L115,33.1l-2.9-1.5c-0.7-0.4-1-1.1-0.8-1.9l1.3-5l0,0l-5,1.3c-0.7,0.2-1.5-0.2-1.9-0.8l-1.5-2.9l-5.9,6.8
		c-0.3,0.3-0.7,0.4-1.1,0.1c-0.2-0.2-0.3-0.5-0.3-0.8l3-14.5L96,16.2c-0.7,0.4-1.7,0.2-2.2-0.5v-0.1L90,8.3l-3.9,7.4
		c-0.4,0.8-1.4,1.1-2.1,0.7h-0.1L80,14l3.1,14.4c0.1,0.4-0.2,0.8-0.6,0.9c-0.3,0.1-0.6,0-0.7-0.3l-5.9-6.8l-1.5,2.9
		c-0.4,0.7-1.1,1-1.9,0.8l-5-1.3l0,0l1.3,5C69,30.4,68.6,31.2,67.9,31.6z"/>
	<path class="st2" d="M165.6,33.1h-46.7l-13.9,12c-0.1,0.1-0.1,0.2-0.1,0.3l3.3,6c0.1,0.2,0.1,0.6-0.2,0.7c-0.1,0.1-0.2,0.1-0.3,0.1
		l-13-2.3c-0.1,0-0.3,0.1-0.3,0.2l0,0v4.1c0,0.1-0.1,0.3-0.3,0.3l0,0h-8.2c-0.1,0-0.3-0.1-0.3-0.3l0,0V50c0-0.1-0.1-0.3-0.3-0.3l0,0
		l-13,2.3c-0.3,0-0.6-0.1-0.6-0.4c0-0.1,0-0.2,0.1-0.3l3.3-6c0.1-0.1,0-0.2-0.1-0.3L61,33H14.4c-3.3-0.1-6.1,2.6-6.1,5.9
		c0,1.3,0.4,2.6,1.1,3.6L85,149.7c1.9,2.7,5.6,3.4,8.4,1.5c0.6-0.4,1.1-0.9,1.5-1.5l75.7-107.1c1.9-2.7,1.3-6.4-1.4-8.4
		C168.2,33.5,166.9,33.1,165.6,33.1z"/>
</g>
</svg>
